<?xml version="1.0" encoding="UTF-8" standalone="no"?>
<!-- Created with Inkscape (http://www.inkscape.org/) -->

<svg
   width="81.132515mm"
   height="9.1782513mm"
   viewBox="0 0 81.132515 9.1782513"
   version="1.1"
   id="svg1"
   xml:space="preserve"
   sodipodi:docname="logo.svg"
   inkscape:version="1.4.2 (ebf0e940, 2025-05-08)"
   xmlns:inkscape="http://www.inkscape.org/namespaces/inkscape"
   xmlns:sodipodi="http://sodipodi.sourceforge.net/DTD/sodipodi-0.dtd"
   xmlns="http://www.w3.org/2000/svg"
   xmlns:svg="http://www.w3.org/2000/svg"><sodipodi:namedview
     id="namedview1"
     pagecolor="#ffffff"
     bordercolor="#000000"
     borderopacity="0.25"
     inkscape:showpageshadow="2"
     inkscape:pageopacity="0.0"
     inkscape:pagecheckerboard="0"
     inkscape:deskcolor="#d1d1d1"
     inkscape:document-units="mm"
     showguides="false"
     inkscape:zoom="0.9192386"
     inkscape:cx="192.55066"
     inkscape:cy="-101.17069"
     inkscape:window-width="1920"
     inkscape:window-height="967"
     inkscape:window-x="0"
     inkscape:window-y="25"
     inkscape:window-maximized="0"
     inkscape:current-layer="svg1"><sodipodi:guide
       position="-1.0433794,8.6156633"
       orientation="0,-1"
       id="guide1"
       inkscape:locked="false" /><sodipodi:guide
       position="19.640228,7.2218485"
       orientation="0,-1"
       id="guide2"
       inkscape:locked="false" /><sodipodi:guide
       position="12.008015,6.0006943"
       orientation="0,-1"
       id="guide3"
       inkscape:locked="false" /><sodipodi:guide
       position="15.77324,4.6777773"
       orientation="0,-1"
       id="guide4"
       inkscape:locked="false" /><sodipodi:guide
       position="22.794876,3.2530974"
       orientation="0,-1"
       id="guide5"
       inkscape:locked="false" /><sodipodi:guide
       position="8.5480786,1.8284176"
       orientation="0,-1"
       id="guide6"
       inkscape:locked="false" /><sodipodi:guide
       position="-0.43174318,0.53846791"
       orientation="0,-1"
       id="guide7"
       inkscape:locked="false" /><sodipodi:guide
       position="0.5088142,21.163359"
       orientation="1,0"
       id="guide8"
       inkscape:locked="false" /><sodipodi:guide
       position="1.7299683,24.012718"
       orientation="1,0"
       id="guide9"
       inkscape:locked="false" /></sodipodi:namedview><defs
     id="defs1"><inkscape:path-effect
       effect="tiling"
       id="path-effect9"
       is_visible="true"
       lpeversion="1.3.1"
       unit="px"
       seed="1;1"
       lpesatellites=""
       num_rows="7"
       num_cols="63"
       gapx="1.2"
       gapy="1.2"
       offset="0"
       offset_type="false"
       scale="0"
       rotate="0"
       mirrorrowsx="false"
       mirrorrowsy="false"
       mirrorcolsx="false"
       mirrorcolsy="false"
       mirrortrans="false"
       shrink_interp="false"
       split_items="false"
       link_styles="false"
       interpolate_scalex="false"
       interpolate_scaley="true"
       interpolate_rotatex="false"
       interpolate_rotatey="true"
       random_scale="false"
       random_rotate="false"
       random_gap_y="false"
       random_gap_x="false"
       transformorigin="" /></defs><path
     id="path446"
     style="font-variation-settings:'wdth' 87, 'wght' 700;fill:#000000;stroke-width:1.86314;stroke-linecap:round;stroke-linejoin:round;paint-order:markers fill stroke"
     d="M 0.520382,0 C 0.233194,0 0,0.232432 0,0.519348 0,0.806264 0.233194,1.038696 0.520382,1.038696 0.80757,1.038696 1.040247,0.806264 1.040247,0.519348 1.040247,0.232432 0.80757,0 0.520382,0 Z m 1.35754,0 C 1.590734,0 1.35754,0.232432 1.35754,0.519348 c 0,0.286916 0.233194,0.519348 0.520382,0.519348 0.287188,0 0.519865,-0.232432 0.519865,-0.519348 C 2.397787,0.232432 2.16511,0 1.877922,0 Z M 3.234945,0 C 2.947757,0 2.71508,0.232432 2.71508,0.519348 c 0,0.286916 0.232677,0.519348 0.519865,0.519348 0.287189,0 0.520382,-0.232432 0.520382,-0.519348 C 3.755327,0.232432 3.522134,0 3.234945,0 Z m 1.35754,0 C 4.305297,0 4.07262,0.232432 4.07262,0.519348 c 0,0.286916 0.232677,0.519348 0.519865,0.519348 0.287188,0 0.520382,-0.232432 0.520382,-0.519348 C 5.112867,0.232432 4.879673,0 4.592485,0 Z m 1.35754,0 C 5.662837,0 5.43016,0.232432 5.43016,0.519348 c 0,0.286916 0.232677,0.519348 0.519865,0.519348 0.287188,0 0.520381,-0.232432 0.520381,-0.519348 C 6.470406,0.232432 6.237213,0 5.950025,0 Z m 4.072619,0 C 9.735456,0 9.502779,0.232432 9.502779,0.519348 c 0,0.286916 0.232677,0.519348 0.519865,0.519348 0.287188,0 0.519865,-0.232432 0.519865,-0.519348 C 10.542509,0.232432 10.309832,0 10.022644,0 Z m 1.35754,0 c -0.287188,0 -0.519865,0.232432 -0.519865,0.519348 0,0.286916 0.232677,0.519348 0.519865,0.519348 0.287188,0 0.519865,-0.232432 0.519865,-0.519348 C 11.900049,0.232432 11.667372,0 11.380184,0 Z m 1.35754,0 c -0.287188,0 -0.519865,0.232432 -0.519865,0.519348 0,0.286916 0.232677,0.519348 0.519865,0.519348 0.287188,0 0.519865,-0.232432 0.519865,-0.519348 C 13.257589,0.232432 13.024912,0 12.737724,0 Z m 4.07262,0 c -0.287188,0 -0.520382,0.232432 -0.520382,0.519348 0,0.286916 0.233194,0.519348 0.520382,0.519348 0.287188,0 0.519865,-0.232432 0.519865,-0.519348 C 17.330209,0.232432 17.097532,0 16.810344,0 Z m 1.35754,0 c -0.287188,0 -0.520382,0.232432 -0.520382,0.519348 0,0.286916 0.233194,0.519348 0.520382,0.519348 0.287188,0 0.519865,-0.232432 0.519865,-0.519348 C 18.687749,0.232432 18.455072,0 18.167884,0 Z m 1.357539,0 c -0.287188,0 -0.520381,0.232432 -0.520381,0.519348 0,0.286916 0.233193,0.519348 0.520381,0.519348 0.287188,0 0.519865,-0.232432 0.519865,-0.519348 C 20.045288,0.232432 19.812611,0 19.525423,0 Z m 1.357024,0 c -0.287188,0 -0.519865,0.232432 -0.519865,0.519348 0,0.286916 0.232677,0.519348 0.519865,0.519348 0.287188,0 0.520381,-0.232432 0.520381,-0.519348 C 21.402828,0.232432 21.169635,0 20.882447,0 Z m 4.072619,0 c -0.287188,0 -0.519865,0.232432 -0.519865,0.519348 0,0.286916 0.232677,0.519348 0.519865,0.519348 0.287189,0 0.519865,-0.232432 0.519865,-0.519348 C 25.474931,0.232432 25.242255,0 24.955066,0 Z m 1.35754,0 c -0.287188,0 -0.519865,0.232432 -0.519865,0.519348 0,0.286916 0.232677,0.519348 0.519865,0.519348 0.287188,0 0.519865,-0.232432 0.519865,-0.519348 C 26.832471,0.232432 26.599794,0 26.312606,0 Z m 1.35754,0 c -0.287188,0 -0.519865,0.232432 -0.519865,0.519348 0,0.286916 0.232677,0.519348 0.519865,0.519348 0.287188,0 0.519865,-0.232432 0.519865,-0.519348 C 28.190011,0.232432 27.957334,0 27.670146,0 Z m 1.35754,0 c -0.287188,0 -0.519865,0.232432 -0.519865,0.519348 0,0.286916 0.232677,0.519348 0.519865,0.519348 0.287188,0 0.519865,-0.232432 0.519865,-0.519348 C 29.547551,0.232432 29.314874,0 29.027686,0 Z m 1.35754,0 c -0.287188,0 -0.519865,0.232432 -0.519865,0.519348 0,0.286916 0.232677,0.519348 0.519865,0.519348 0.287188,0 0.519865,-0.232432 0.519865,-0.519348 C 30.905091,0.232432 30.672414,0 30.385226,0 Z m 2.715079,0 c -0.287188,0 -0.520381,0.232432 -0.520381,0.519348 0,0.286916 0.233193,0.519348 0.520381,0.519348 0.287188,0 0.519865,-0.232432 0.519865,-0.519348 C 33.62017,0.232432 33.387493,0 33.100305,0 Z m 20.362582,0 c -0.287188,0 -0.520382,0.232432 -0.520382,0.519348 0,0.286916 0.233194,0.519348 0.520382,0.519348 0.287188,0 0.519865,-0.232432 0.519865,-0.519348 C 53.982752,0.232432 53.750075,0 53.462887,0 Z m 1.35754,0 c -0.287188,0 -0.520382,0.232432 -0.520382,0.519348 0,0.286916 0.233194,0.519348 0.520382,0.519348 0.287188,0 0.519865,-0.232432 0.519865,-0.519348 C 55.340292,0.232432 55.107615,0 54.820427,0 Z m 1.357023,0 c -0.287188,0 -0.519865,0.232432 -0.519865,0.519348 0,0.286916 0.232677,0.519348 0.519865,0.519348 0.287188,0 0.520382,-0.232432 0.520382,-0.519348 C 56.697832,0.232432 56.464638,0 56.17745,0 Z m 21.720121,0 c -0.287188,0 -0.519865,0.232432 -0.519865,0.519348 0,0.286916 0.232677,0.519348 0.519865,0.519348 0.287188,0 0.519865,-0.232432 0.519865,-0.519348 C 78.417436,0.232432 78.184759,0 77.897571,0 Z M 0.520382,1.356506 C 0.233194,1.356506 0,1.588939 0,1.875855 c 0,0.286916 0.233194,0.519864 0.520382,0.519864 0.287188,0 0.519865,-0.232948 0.519865,-0.519864 0,-0.286916 -0.232677,-0.519349 -0.519865,-0.519349 z m 8.144722,0 c -0.287188,0 -0.519864,0.232433 -0.519864,0.519349 0,0.286916 0.232676,0.519864 0.519864,0.519864 0.287188,0 0.519865,-0.232948 0.519865,-0.519864 0,-0.286916 -0.232677,-0.519349 -0.519865,-0.519349 z m 5.43016,0 c -0.287188,0 -0.519865,0.232433 -0.519865,0.519349 0,0.286916 0.232677,0.519864 0.519865,0.519864 0.287188,0 0.519865,-0.232948 0.519865,-0.519864 0,-0.286916 -0.232677,-0.519349 -0.519865,-0.519349 z m 2.71508,0 c -0.287188,0 -0.520382,0.232433 -0.520382,0.519349 0,0.286916 0.233194,0.519864 0.520382,0.519864 0.287188,0 0.519865,-0.232948 0.519865,-0.519864 0,-0.286916 -0.232677,-0.519349 -0.519865,-0.519349 z m 5.429642,0 c -0.287188,0 -0.519864,0.232433 -0.519864,0.519349 0,0.286916 0.232676,0.519864 0.519864,0.519864 0.287188,0 0.520382,-0.232948 0.520382,-0.519864 0,-0.286916 -0.233194,-0.519349 -0.520382,-0.519349 z m 5.43016,0 c -0.287188,0 -0.519865,0.232433 -0.519865,0.519349 0,0.286916 0.232677,0.519864 0.519865,0.519864 0.287188,0 0.519865,-0.232948 0.519865,-0.519864 0,-0.286916 -0.232677,-0.519349 -0.519865,-0.519349 z m 24.435201,0 c -0.287188,0 -0.520382,0.232433 -0.520382,0.519349 0,0.286916 0.233194,0.519864 0.520382,0.519864 0.287188,0 0.519865,-0.232948 0.519865,-0.519864 0,-0.286916 -0.232677,-0.519349 -0.519865,-0.519349 z m 5.429643,0 c -0.287188,0 -0.519865,0.232433 -0.519865,0.519349 0,0.286916 0.232677,0.519864 0.519865,0.519864 0.287188,0 0.520381,-0.232948 0.520381,-0.519864 0,-0.286916 -0.233193,-0.519349 -0.520381,-0.519349 z m 20.362581,0 c -0.287188,0 -0.519865,0.232433 -0.519865,0.519349 0,0.286916 0.232677,0.519864 0.519865,0.519864 0.287188,0 0.519865,-0.232948 0.519865,-0.519864 0,-0.286916 -0.232677,-0.519349 -0.519865,-0.519349 z M 0.520382,2.713013 C 0.233194,2.713013 0,2.945445 0,3.232361 c 0,0.286916 0.233194,0.519865 0.520382,0.519865 0.287188,0 0.519865,-0.232949 0.519865,-0.519865 0,-0.286916 -0.232677,-0.519348 -0.519865,-0.519348 z m 8.144722,0 c -0.287188,0 -0.519864,0.232432 -0.519864,0.519348 0,0.286916 0.232676,0.519865 0.519864,0.519865 0.287188,0 0.519865,-0.232949 0.519865,-0.519865 0,-0.286916 -0.232677,-0.519348 -0.519865,-0.519348 z m 8.14524,0 c -0.287188,0 -0.520382,0.232432 -0.520382,0.519348 0,0.286916 0.233194,0.519865 0.520382,0.519865 0.287188,0 0.519865,-0.232949 0.519865,-0.519865 0,-0.286916 -0.232677,-0.519348 -0.519865,-0.519348 z m 5.429642,0 c -0.287188,0 -0.519864,0.232432 -0.519864,0.519348 0,0.286916 0.232676,0.519865 0.519864,0.519865 0.287188,0 0.520382,-0.232949 0.520382,-0.519865 0,-0.286916 -0.233194,-0.519348 -0.520382,-0.519348 z m 5.43016,0 c -0.287188,0 -0.519865,0.232432 -0.519865,0.519348 0,0.286916 0.232677,0.519865 0.519865,0.519865 0.287188,0 0.519865,-0.232949 0.519865,-0.519865 0,-0.286916 -0.232677,-0.519348 -0.519865,-0.519348 z m 5.430159,0 c -0.287188,0 -0.520381,0.232432 -0.520381,0.519348 0,0.286916 0.233193,0.519865 0.520381,0.519865 0.287188,0 0.519865,-0.232949 0.519865,-0.519865 0,-0.286916 -0.232677,-0.519348 -0.519865,-0.519348 z m 2.71508,0 c -0.287188,0 -0.520381,0.232432 -0.520381,0.519348 0,0.286916 0.233193,0.519865 0.520381,0.519865 0.287188,0 0.519865,-0.232949 0.519865,-0.519865 0,-0.286916 -0.232677,-0.519348 -0.519865,-0.519348 z m 1.35754,0 c -0.287188,0 -0.520382,0.232432 -0.520382,0.519348 0,0.286916 0.233194,0.519865 0.520382,0.519865 0.287188,0 0.519865,-0.232949 0.519865,-0.519865 0,-0.286916 -0.232677,-0.519348 -0.519865,-0.519348 z m 1.357023,0 c -0.287188,0 -0.519865,0.232432 -0.519865,0.519348 0,0.286916 0.232677,0.519865 0.519865,0.519865 0.287188,0 0.520382,-0.232949 0.520382,-0.519865 0,-0.286916 -0.233194,-0.519348 -0.520382,-0.519348 z m 1.35754,0 c -0.287188,0 -0.519865,0.232432 -0.519865,0.519348 0,0.286916 0.232677,0.519865 0.519865,0.519865 0.287188,0 0.520382,-0.232949 0.520382,-0.519865 0,-0.286916 -0.233194,-0.519348 -0.520382,-0.519348 z m 5.43016,0 c -0.287188,0 -0.519865,0.232432 -0.519865,0.519348 0,0.286916 0.232677,0.519865 0.519865,0.519865 0.287188,0 0.519865,-0.232949 0.519865,-0.519865 0,-0.286916 -0.232677,-0.519348 -0.519865,-0.519348 z m 1.357539,0 c -0.287188,0 -0.519864,0.232432 -0.519864,0.519348 0,0.286916 0.232676,0.519865 0.519864,0.519865 0.287188,0 0.519865,-0.232949 0.519865,-0.519865 0,-0.286916 -0.232677,-0.519348 -0.519865,-0.519348 z m 1.35754,0 c -0.287188,0 -0.519865,0.232432 -0.519865,0.519348 0,0.286916 0.232677,0.519865 0.519865,0.519865 0.287188,0 0.519865,-0.232949 0.519865,-0.519865 0,-0.286916 -0.232677,-0.519348 -0.519865,-0.519348 z m 4.07262,0 c -0.287188,0 -0.520382,0.232432 -0.520382,0.519348 0,0.286916 0.233194,0.519865 0.520382,0.519865 0.287188,0 0.519865,-0.232949 0.519865,-0.519865 0,-0.286916 -0.232677,-0.519348 -0.519865,-0.519348 z m 9.502262,0 c -0.287188,0 -0.519865,0.232432 -0.519865,0.519348 0,0.286916 0.232677,0.519865 0.519865,0.519865 0.287188,0 0.519865,-0.232949 0.519865,-0.519865 0,-0.286916 -0.232677,-0.519348 -0.519865,-0.519348 z m 1.35754,0 c -0.287188,0 -0.519865,0.232432 -0.519865,0.519348 0,0.286916 0.232677,0.519865 0.519865,0.519865 0.287188,0 0.519865,-0.232949 0.519865,-0.519865 0,-0.286916 -0.232677,-0.519348 -0.519865,-0.519348 z m 1.35754,0 c -0.287188,0 -0.519865,0.232432 -0.519865,0.519348 0,0.286916 0.232677,0.519865 0.519865,0.519865 0.287188,0 0.519865,-0.232949 0.519865,-0.519865 0,-0.286916 -0.232677,-0.519348 -0.519865,-0.519348 z m 1.35754,0 c -0.287188,0 -0.519865,0.232432 -0.519865,0.519348 0,0.286916 0.232677,0.519865 0.519865,0.519865 0.287188,0 0.519865,-0.232949 0.519865,-0.519865 0,-0.286916 -0.232677,-0.519348 -0.519865,-0.519348 z m 4.07262,0 c -0.287188,0 -0.520382,0.232432 -0.520382,0.519348 0,0.286916 0.233194,0.519865 0.520382,0.519865 0.287188,0 0.519865,-0.232949 0.519865,-0.519865 0,-0.286916 -0.232677,-0.519348 -0.519865,-0.519348 z m 1.357539,0 c -0.287188,0 -0.520381,0.232432 -0.520381,0.519348 0,0.286916 0.233193,0.519865 0.520381,0.519865 0.287188,0 0.519865,-0.232949 0.519865,-0.519865 0,-0.286916 -0.232677,-0.519348 -0.519865,-0.519348 z m 1.35754,0 c -0.287188,0 -0.520381,0.232432 -0.520381,0.519348 0,0.286916 0.233193,0.519865 0.520381,0.519865 0.287188,0 0.519865,-0.232949 0.519865,-0.519865 0,-0.286916 -0.232677,-0.519348 -0.519865,-0.519348 z m 1.357023,0 c -0.287188,0 -0.519864,0.232432 -0.519864,0.519348 0,0.286916 0.232676,0.519865 0.519864,0.519865 0.287188,0 0.520382,-0.232949 0.520382,-0.519865 0,-0.286916 -0.233194,-0.519348 -0.520382,-0.519348 z m 2.71508,0 c -0.287188,0 -0.519865,0.232432 -0.519865,0.519348 0,0.286916 0.232677,0.519865 0.519865,0.519865 0.287189,0 0.520382,-0.232949 0.520382,-0.519865 0,-0.286916 -0.233193,-0.519348 -0.520382,-0.519348 z m 1.35754,0 c -0.287188,0 -0.519865,0.232432 -0.519865,0.519348 0,0.286916 0.232677,0.519865 0.519865,0.519865 0.287188,0 0.519865,-0.232949 0.519865,-0.519865 0,-0.286916 -0.232677,-0.519348 -0.519865,-0.519348 z m 1.35754,0 c -0.287188,0 -0.519865,0.232432 -0.519865,0.519348 0,0.286916 0.232677,0.519865 0.519865,0.519865 0.287188,0 0.519865,-0.232949 0.519865,-0.519865 0,-0.286916 -0.232677,-0.519348 -0.519865,-0.519348 z m 1.35754,0 c -0.287188,0 -0.519865,0.232432 -0.519865,0.519348 0,0.286916 0.232677,0.519865 0.519865,0.519865 0.287188,0 0.519865,-0.232949 0.519865,-0.519865 0,-0.286916 -0.232677,-0.519348 -0.519865,-0.519348 z M 0.520382,4.069519 C 0.233194,4.069519 0,4.301952 0,4.588867 c 0,0.286916 0.233194,0.519865 0.520382,0.519865 0.287188,0 0.519865,-0.232949 0.519865,-0.519865 0,-0.286915 -0.232677,-0.519348 -0.519865,-0.519348 z m 1.35754,0 c -0.287188,0 -0.520382,0.232433 -0.520382,0.519348 0,0.286916 0.233194,0.519865 0.520382,0.519865 0.287188,0 0.519865,-0.232949 0.519865,-0.519865 0,-0.286915 -0.232677,-0.519348 -0.519865,-0.519348 z m 1.357023,0 c -0.287188,0 -0.519865,0.232433 -0.519865,0.519348 0,0.286916 0.232677,0.519865 0.519865,0.519865 0.287189,0 0.520382,-0.232949 0.520382,-0.519865 0,-0.286915 -0.233193,-0.519348 -0.520382,-0.519348 z m 1.35754,0 c -0.287188,0 -0.519865,0.232433 -0.519865,0.519348 0,0.286916 0.232677,0.519865 0.519865,0.519865 0.287188,0 0.520382,-0.232949 0.520382,-0.519865 0,-0.286915 -0.233194,-0.519348 -0.520382,-0.519348 z m 5.430159,0 c -0.287188,0 -0.519865,0.232433 -0.519865,0.519348 0,0.286916 0.232677,0.519865 0.519865,0.519865 0.287188,0 0.519865,-0.232949 0.519865,-0.519865 0,-0.286915 -0.232677,-0.519348 -0.519865,-0.519348 z m 1.35754,0 c -0.287188,0 -0.519865,0.232433 -0.519865,0.519348 0,0.286916 0.232677,0.519865 0.519865,0.519865 0.287188,0 0.519865,-0.232949 0.519865,-0.519865 0,-0.286915 -0.232677,-0.519348 -0.519865,-0.519348 z m 1.35754,0 c -0.287188,0 -0.519865,0.232433 -0.519865,0.519348 0,0.286916 0.232677,0.519865 0.519865,0.519865 0.287188,0 0.519865,-0.232949 0.519865,-0.519865 0,-0.286915 -0.232677,-0.519348 -0.519865,-0.519348 z m 4.07262,0 c -0.287188,0 -0.520382,0.232433 -0.520382,0.519348 0,0.286916 0.233194,0.519865 0.520382,0.519865 0.287188,0 0.519865,-0.232949 0.519865,-0.519865 0,-0.286915 -0.232677,-0.519348 -0.519865,-0.519348 z m 1.35754,0 c -0.287188,0 -0.520382,0.232433 -0.520382,0.519348 0,0.286916 0.233194,0.519865 0.520382,0.519865 0.287188,0 0.519865,-0.232949 0.519865,-0.519865 0,-0.286915 -0.232677,-0.519348 -0.519865,-0.519348 z m 1.357539,0 c -0.287188,0 -0.520381,0.232433 -0.520381,0.519348 0,0.286916 0.233193,0.519865 0.520381,0.519865 0.287188,0 0.519865,-0.232949 0.519865,-0.519865 0,-0.286915 -0.232677,-0.519348 -0.519865,-0.519348 z m 1.357024,0 c -0.287188,0 -0.519865,0.232433 -0.519865,0.519348 0,0.286916 0.232677,0.519865 0.519865,0.519865 0.287188,0 0.520381,-0.232949 0.520381,-0.519865 0,-0.286915 -0.233193,-0.519348 -0.520381,-0.519348 z m 6.787699,0 c -0.287188,0 -0.519865,0.232433 -0.519865,0.519348 0,0.286916 0.232677,0.519865 0.519865,0.519865 0.287188,0 0.519865,-0.232949 0.519865,-0.519865 0,-0.286915 -0.232677,-0.519348 -0.519865,-0.519348 z m 5.430159,0 c -0.287188,0 -0.520381,0.232433 -0.520381,0.519348 0,0.286916 0.233193,0.519865 0.520381,0.519865 0.287188,0 0.519865,-0.232949 0.519865,-0.519865 0,-0.286915 -0.232677,-0.519348 -0.519865,-0.519348 z m 2.71508,0 c -0.287188,0 -0.520381,0.232433 -0.520381,0.519348 0,0.286916 0.233193,0.519865 0.520381,0.519865 0.287188,0 0.519865,-0.232949 0.519865,-0.519865 0,-0.286915 -0.232677,-0.519348 -0.519865,-0.519348 z m 2.714563,0 c -0.287188,0 -0.519865,0.232433 -0.519865,0.519348 0,0.286916 0.232677,0.519865 0.519865,0.519865 0.287188,0 0.520382,-0.232949 0.520382,-0.519865 0,-0.286915 -0.233194,-0.519348 -0.520382,-0.519348 z m 2.71508,0 c -0.287188,0 -0.519865,0.232433 -0.519865,0.519348 0,0.286916 0.232677,0.519865 0.519865,0.519865 0.287188,0 0.520382,-0.232949 0.520382,-0.519865 0,-0.286915 -0.233194,-0.519348 -0.520382,-0.519348 z m 2.71508,0 c -0.287188,0 -0.519865,0.232433 -0.519865,0.519348 0,0.286916 0.232677,0.519865 0.519865,0.519865 0.287188,0 0.519865,-0.232949 0.519865,-0.519865 0,-0.286915 -0.232677,-0.519348 -0.519865,-0.519348 z m 5.430159,0 c -0.287189,0 -0.519865,0.232433 -0.519865,0.519348 0,0.286916 0.232676,0.519865 0.519865,0.519865 0.287188,0 0.519865,-0.232949 0.519865,-0.519865 0,-0.286915 -0.232677,-0.519348 -0.519865,-0.519348 z m 2.71508,0 c -0.287188,0 -0.520382,0.232433 -0.520382,0.519348 0,0.286916 0.233194,0.519865 0.520382,0.519865 0.287188,0 0.519865,-0.232949 0.519865,-0.519865 0,-0.286915 -0.232677,-0.519348 -0.519865,-0.519348 z m 8.144722,0 c -0.287188,0 -0.519864,0.232433 -0.519864,0.519348 0,0.286916 0.232676,0.519865 0.519864,0.519865 0.287188,0 0.519865,-0.232949 0.519865,-0.519865 0,-0.286915 -0.232677,-0.519348 -0.519865,-0.519348 z m 5.43016,0 c -0.287188,0 -0.519865,0.232433 -0.519865,0.519348 0,0.286916 0.232677,0.519865 0.519865,0.519865 0.287188,0 0.519865,-0.232949 0.519865,-0.519865 0,-0.286915 -0.232677,-0.519348 -0.519865,-0.519348 z m 2.71508,0 c -0.287188,0 -0.520382,0.232433 -0.520382,0.519348 0,0.286916 0.233194,0.519865 0.520382,0.519865 0.287188,0 0.519865,-0.232949 0.519865,-0.519865 0,-0.286915 -0.232677,-0.519348 -0.519865,-0.519348 z m 9.502262,0 c -0.287188,0 -0.519865,0.232433 -0.519865,0.519348 0,0.286916 0.232677,0.519865 0.519865,0.519865 0.287188,0 0.519865,-0.232949 0.519865,-0.519865 0,-0.286915 -0.232677,-0.519348 -0.519865,-0.519348 z M 0.520382,5.426025 C 0.233194,5.426025 0,5.658458 0,5.945374 0,6.23229 0.233194,6.465238 0.520382,6.465238 c 0.287188,0 0.519865,-0.232948 0.519865,-0.519864 0,-0.286916 -0.232677,-0.519349 -0.519865,-0.519349 z m 13.574882,0 c -0.287188,0 -0.519865,0.232433 -0.519865,0.519349 0,0.286916 0.232677,0.519864 0.519865,0.519864 0.287188,0 0.519865,-0.232948 0.519865,-0.519864 0,-0.286916 -0.232677,-0.519349 -0.519865,-0.519349 z m 2.71508,0 c -0.287188,0 -0.520382,0.232433 -0.520382,0.519349 0,0.286916 0.233194,0.519864 0.520382,0.519864 0.287188,0 0.519865,-0.232948 0.519865,-0.519864 0,-0.286916 -0.232677,-0.519349 -0.519865,-0.519349 z m 10.859802,0 c -0.287188,0 -0.519865,0.232433 -0.519865,0.519349 0,0.286916 0.232677,0.519864 0.519865,0.519864 0.287188,0 0.519865,-0.232948 0.519865,-0.519864 0,-0.286916 -0.232677,-0.519349 -0.519865,-0.519349 z m 5.430159,0 c -0.287188,0 -0.520381,0.232433 -0.520381,0.519349 0,0.286916 0.233193,0.519864 0.520381,0.519864 0.287188,0 0.519865,-0.232948 0.519865,-0.519864 0,-0.286916 -0.232677,-0.519349 -0.519865,-0.519349 z m 2.71508,0 c -0.287188,0 -0.520381,0.232433 -0.520381,0.519349 0,0.286916 0.233193,0.519864 0.520381,0.519864 0.287188,0 0.519865,-0.232948 0.519865,-0.519864 0,-0.286916 -0.232677,-0.519349 -0.519865,-0.519349 z m 2.714563,0 c -0.287188,0 -0.519865,0.232433 -0.519865,0.519349 0,0.286916 0.232677,0.519864 0.519865,0.519864 0.287188,0 0.520382,-0.232948 0.520382,-0.519864 0,-0.286916 -0.233194,-0.519349 -0.520382,-0.519349 z m 2.71508,0 c -0.287188,0 -0.519865,0.232433 -0.519865,0.519349 0,0.286916 0.232677,0.519864 0.519865,0.519864 0.287188,0 0.520382,-0.232948 0.520382,-0.519864 0,-0.286916 -0.233194,-0.519349 -0.520382,-0.519349 z m 2.71508,0 c -0.287188,0 -0.519865,0.232433 -0.519865,0.519349 0,0.286916 0.232677,0.519864 0.519865,0.519864 0.287188,0 0.519865,-0.232948 0.519865,-0.519864 0,-0.286916 -0.232677,-0.519349 -0.519865,-0.519349 z m 1.35754,0 c -0.287188,0 -0.519865,0.232433 -0.519865,0.519349 0,0.286916 0.232677,0.519864 0.519865,0.519864 0.287188,0 0.519865,-0.232948 0.519865,-0.519864 0,-0.286916 -0.232677,-0.519349 -0.519865,-0.519349 z m 1.357539,0 c -0.287188,0 -0.519864,0.232433 -0.519864,0.519349 0,0.286916 0.232676,0.519864 0.519864,0.519864 0.287188,0 0.519865,-0.232948 0.519865,-0.519864 0,-0.286916 -0.232677,-0.519349 -0.519865,-0.519349 z m 1.35754,0 c -0.287188,0 -0.519865,0.232433 -0.519865,0.519349 0,0.286916 0.232677,0.519864 0.519865,0.519864 0.287188,0 0.519865,-0.232948 0.519865,-0.519864 0,-0.286916 -0.232677,-0.519349 -0.519865,-0.519349 z m 1.35754,0 c -0.287189,0 -0.519865,0.232433 -0.519865,0.519349 0,0.286916 0.232676,0.519864 0.519865,0.519864 0.287188,0 0.519865,-0.232948 0.519865,-0.519864 0,-0.286916 -0.232677,-0.519349 -0.519865,-0.519349 z m 2.71508,0 c -0.287188,0 -0.520382,0.232433 -0.520382,0.519349 0,0.286916 0.233194,0.519864 0.520382,0.519864 0.287188,0 0.519865,-0.232948 0.519865,-0.519864 0,-0.286916 -0.232677,-0.519349 -0.519865,-0.519349 z m 8.144722,0 c -0.287188,0 -0.519864,0.232433 -0.519864,0.519349 0,0.286916 0.232676,0.519864 0.519864,0.519864 0.287188,0 0.519865,-0.232948 0.519865,-0.519864 0,-0.286916 -0.232677,-0.519349 -0.519865,-0.519349 z m 5.43016,0 c -0.287188,0 -0.519865,0.232433 -0.519865,0.519349 0,0.286916 0.232677,0.519864 0.519865,0.519864 0.287188,0 0.519865,-0.232948 0.519865,-0.519864 0,-0.286916 -0.232677,-0.519349 -0.519865,-0.519349 z m 4.07262,0 c -0.287188,0 -0.520382,0.232433 -0.520382,0.519349 0,0.286916 0.233194,0.519864 0.520382,0.519864 0.287188,0 0.519865,-0.232948 0.519865,-0.519864 0,-0.286916 -0.232677,-0.519349 -0.519865,-0.519349 z m 1.357539,0 c -0.287188,0 -0.520381,0.232433 -0.520381,0.519349 0,0.286916 0.233193,0.519864 0.520381,0.519864 0.287188,0 0.519865,-0.232948 0.519865,-0.519864 0,-0.286916 -0.232677,-0.519349 -0.519865,-0.519349 z m 1.35754,0 c -0.287188,0 -0.520381,0.232433 -0.520381,0.519349 0,0.286916 0.233193,0.519864 0.520381,0.519864 0.287188,0 0.519865,-0.232948 0.519865,-0.519864 0,-0.286916 -0.232677,-0.519349 -0.519865,-0.519349 z m 5.429643,0 c -0.287188,0 -0.519865,0.232433 -0.519865,0.519349 0,0.286916 0.232677,0.519864 0.519865,0.519864 0.287188,0 0.519865,-0.232948 0.519865,-0.519864 0,-0.286916 -0.232677,-0.519349 -0.519865,-0.519349 z M 0.520382,6.782532 C 0.233194,6.782532 0,7.014964 0,7.30188 c 0,0.286916 0.233194,0.519865 0.520382,0.519865 0.287188,0 0.519865,-0.232949 0.519865,-0.519865 0,-0.286916 -0.232677,-0.519348 -0.519865,-0.519348 z m 8.144722,0 c -0.287188,0 -0.519864,0.232432 -0.519864,0.519348 0,0.286916 0.232676,0.519865 0.519864,0.519865 0.287188,0 0.519865,-0.232949 0.519865,-0.519865 0,-0.286916 -0.232677,-0.519348 -0.519865,-0.519348 z m 5.43016,0 c -0.287188,0 -0.519865,0.232432 -0.519865,0.519348 0,0.286916 0.232677,0.519865 0.519865,0.519865 0.287188,0 0.519865,-0.232949 0.519865,-0.519865 0,-0.286916 -0.232677,-0.519348 -0.519865,-0.519348 z m 2.71508,0 c -0.287188,0 -0.520382,0.232432 -0.520382,0.519348 0,0.286916 0.233194,0.519865 0.520382,0.519865 0.287188,0 0.519865,-0.232949 0.519865,-0.519865 0,-0.286916 -0.232677,-0.519348 -0.519865,-0.519348 z m 10.859802,0 c -0.287188,0 -0.519865,0.232432 -0.519865,0.519348 0,0.286916 0.232677,0.519865 0.519865,0.519865 0.287188,0 0.519865,-0.232949 0.519865,-0.519865 0,-0.286916 -0.232677,-0.519348 -0.519865,-0.519348 z m 5.430159,0 c -0.287188,0 -0.520381,0.232432 -0.520381,0.519348 0,0.286916 0.233193,0.519865 0.520381,0.519865 0.287188,0 0.519865,-0.232949 0.519865,-0.519865 0,-0.286916 -0.232677,-0.519348 -0.519865,-0.519348 z m 2.71508,0 c -0.287188,0 -0.520381,0.232432 -0.520381,0.519348 0,0.286916 0.233193,0.519865 0.520381,0.519865 0.287188,0 0.519865,-0.232949 0.519865,-0.519865 0,-0.286916 -0.232677,-0.519348 -0.519865,-0.519348 z m 2.714563,0 c -0.287188,0 -0.519865,0.232432 -0.519865,0.519348 0,0.286916 0.232677,0.519865 0.519865,0.519865 0.287188,0 0.520382,-0.232949 0.520382,-0.519865 0,-0.286916 -0.233194,-0.519348 -0.520382,-0.519348 z m 2.71508,0 c -0.287188,0 -0.519865,0.232432 -0.519865,0.519348 0,0.286916 0.232677,0.519865 0.519865,0.519865 0.287188,0 0.520382,-0.232949 0.520382,-0.519865 0,-0.286916 -0.233194,-0.519348 -0.520382,-0.519348 z m 2.71508,0 c -0.287188,0 -0.519865,0.232432 -0.519865,0.519348 0,0.286916 0.232677,0.519865 0.519865,0.519865 0.287188,0 0.519865,-0.232949 0.519865,-0.519865 0,-0.286916 -0.232677,-0.519348 -0.519865,-0.519348 z m 8.145239,0 c -0.287188,0 -0.520382,0.232432 -0.520382,0.519348 0,0.286916 0.233194,0.519865 0.520382,0.519865 0.287188,0 0.519865,-0.232949 0.519865,-0.519865 0,-0.286916 -0.232677,-0.519348 -0.519865,-0.519348 z m 5.429643,0 c -0.287188,0 -0.519865,0.232432 -0.519865,0.519348 0,0.286916 0.232677,0.519865 0.519865,0.519865 0.287188,0 0.520381,-0.232949 0.520381,-0.519865 0,-0.286916 -0.233193,-0.519348 -0.520381,-0.519348 z m 2.715079,0 c -0.287188,0 -0.519864,0.232432 -0.519864,0.519348 0,0.286916 0.232676,0.519865 0.519864,0.519865 0.287188,0 0.519865,-0.232949 0.519865,-0.519865 0,-0.286916 -0.232677,-0.519348 -0.519865,-0.519348 z m 4.07262,0 c -0.287188,0 -0.519865,0.232432 -0.519865,0.519348 0,0.286916 0.232677,0.519865 0.519865,0.519865 0.287188,0 0.519865,-0.232949 0.519865,-0.519865 0,-0.286916 -0.232677,-0.519348 -0.519865,-0.519348 z m 1.35754,0 c -0.287188,0 -0.519865,0.232432 -0.519865,0.519348 0,0.286916 0.232677,0.519865 0.519865,0.519865 0.287188,0 0.519865,-0.232949 0.519865,-0.519865 0,-0.286916 -0.232677,-0.519348 -0.519865,-0.519348 z m 8.144722,0 c -0.287188,0 -0.519864,0.232432 -0.519864,0.519348 0,0.286916 0.232676,0.519865 0.519864,0.519865 0.287188,0 0.520382,-0.232949 0.520382,-0.519865 0,-0.286916 -0.233194,-0.519348 -0.520382,-0.519348 z m 4.07262,0 c -0.287188,0 -0.519865,0.232432 -0.519865,0.519348 0,0.286916 0.232677,0.519865 0.519865,0.519865 0.287188,0 0.519865,-0.232949 0.519865,-0.519865 0,-0.286916 -0.232677,-0.519348 -0.519865,-0.519348 z M 0.520382,8.139038 C 0.233194,8.139038 0,8.37147 0,8.658386 c 0,0.286916 0.233194,0.519865 0.520382,0.519865 0.287188,0 0.519865,-0.232949 0.519865,-0.519865 0,-0.286916 -0.232677,-0.519348 -0.519865,-0.519348 z m 1.35754,0 c -0.287188,0 -0.520382,0.232432 -0.520382,0.519348 0,0.286916 0.233194,0.519865 0.520382,0.519865 0.287188,0 0.519865,-0.232949 0.519865,-0.519865 0,-0.286916 -0.232677,-0.519348 -0.519865,-0.519348 z m 1.357023,0 c -0.287188,0 -0.519865,0.232432 -0.519865,0.519348 0,0.286916 0.232677,0.519865 0.519865,0.519865 0.287189,0 0.520382,-0.232949 0.520382,-0.519865 0,-0.286916 -0.233193,-0.519348 -0.520382,-0.519348 z m 1.35754,0 c -0.287188,0 -0.519865,0.232432 -0.519865,0.519348 0,0.286916 0.232677,0.519865 0.519865,0.519865 0.287188,0 0.520382,-0.232949 0.520382,-0.519865 0,-0.286916 -0.233194,-0.519348 -0.520382,-0.519348 z m 1.35754,0 c -0.287188,0 -0.519865,0.232432 -0.519865,0.519348 0,0.286916 0.232677,0.519865 0.519865,0.519865 0.287188,0 0.520381,-0.232949 0.520381,-0.519865 0,-0.286916 -0.233193,-0.519348 -0.520381,-0.519348 z m 4.072619,0 c -0.287188,0 -0.519865,0.232432 -0.519865,0.519348 0,0.286916 0.232677,0.519865 0.519865,0.519865 0.287188,0 0.519865,-0.232949 0.519865,-0.519865 0,-0.286916 -0.232677,-0.519348 -0.519865,-0.519348 z m 1.35754,0 c -0.287188,0 -0.519865,0.232432 -0.519865,0.519348 0,0.286916 0.232677,0.519865 0.519865,0.519865 0.287188,0 0.519865,-0.232949 0.519865,-0.519865 0,-0.286916 -0.232677,-0.519348 -0.519865,-0.519348 z m 1.35754,0 c -0.287188,0 -0.519865,0.232432 -0.519865,0.519348 0,0.286916 0.232677,0.519865 0.519865,0.519865 0.287188,0 0.519865,-0.232949 0.519865,-0.519865 0,-0.286916 -0.232677,-0.519348 -0.519865,-0.519348 z m 4.07262,0 c -0.287188,0 -0.520382,0.232432 -0.520382,0.519348 0,0.286916 0.233194,0.519865 0.520382,0.519865 0.287188,0 0.519865,-0.232949 0.519865,-0.519865 0,-0.286916 -0.232677,-0.519348 -0.519865,-0.519348 z m 10.859802,0 c -0.287188,0 -0.519865,0.232432 -0.519865,0.519348 0,0.286916 0.232677,0.519865 0.519865,0.519865 0.287188,0 0.519865,-0.232949 0.519865,-0.519865 0,-0.286916 -0.232677,-0.519348 -0.519865,-0.519348 z m 5.430159,0 c -0.287188,0 -0.520381,0.232432 -0.520381,0.519348 0,0.286916 0.233193,0.519865 0.520381,0.519865 0.287188,0 0.519865,-0.232949 0.519865,-0.519865 0,-0.286916 -0.232677,-0.519348 -0.519865,-0.519348 z m 2.71508,0 c -0.287188,0 -0.520381,0.232432 -0.520381,0.519348 0,0.286916 0.233193,0.519865 0.520381,0.519865 0.287188,0 0.519865,-0.232949 0.519865,-0.519865 0,-0.286916 -0.232677,-0.519348 -0.519865,-0.519348 z m 2.714563,0 c -0.287188,0 -0.519865,0.232432 -0.519865,0.519348 0,0.286916 0.232677,0.519865 0.519865,0.519865 0.287188,0 0.520382,-0.232949 0.520382,-0.519865 0,-0.286916 -0.233194,-0.519348 -0.520382,-0.519348 z m 2.71508,0 c -0.287188,0 -0.519865,0.232432 -0.519865,0.519348 0,0.286916 0.232677,0.519865 0.519865,0.519865 0.287188,0 0.520382,-0.232949 0.520382,-0.519865 0,-0.286916 -0.233194,-0.519348 -0.520382,-0.519348 z m 4.07262,0 c -0.287188,0 -0.519865,0.232432 -0.519865,0.519348 0,0.286916 0.232677,0.519865 0.519865,0.519865 0.287188,0 0.519865,-0.232949 0.519865,-0.519865 0,-0.286916 -0.232677,-0.519348 -0.519865,-0.519348 z m 1.357539,0 c -0.287188,0 -0.519864,0.232432 -0.519864,0.519348 0,0.286916 0.232676,0.519865 0.519864,0.519865 0.287188,0 0.519865,-0.232949 0.519865,-0.519865 0,-0.286916 -0.232677,-0.519348 -0.519865,-0.519348 z m 1.35754,0 c -0.287188,0 -0.519865,0.232432 -0.519865,0.519348 0,0.286916 0.232677,0.519865 0.519865,0.519865 0.287188,0 0.519865,-0.232949 0.519865,-0.519865 0,-0.286916 -0.232677,-0.519348 -0.519865,-0.519348 z m 5.43016,0 c -0.287188,0 -0.520382,0.232432 -0.520382,0.519348 0,0.286916 0.233194,0.519865 0.520382,0.519865 0.287188,0 0.519865,-0.232949 0.519865,-0.519865 0,-0.286916 -0.232677,-0.519348 -0.519865,-0.519348 z m 1.35754,0 c -0.287188,0 -0.520382,0.232432 -0.520382,0.519348 0,0.286916 0.233194,0.519865 0.520382,0.519865 0.287188,0 0.519865,-0.232949 0.519865,-0.519865 0,-0.286916 -0.232677,-0.519348 -0.519865,-0.519348 z m 1.357023,0 c -0.287188,0 -0.519865,0.232432 -0.519865,0.519348 0,0.286916 0.232677,0.519865 0.519865,0.519865 0.287188,0 0.520382,-0.232949 0.520382,-0.519865 0,-0.286916 -0.233194,-0.519348 -0.520382,-0.519348 z m 5.430159,0 c -0.287188,0 -0.519865,0.232432 -0.519865,0.519348 0,0.286916 0.232677,0.519865 0.519865,0.519865 0.287188,0 0.519865,-0.232949 0.519865,-0.519865 0,-0.286916 -0.232677,-0.519348 -0.519865,-0.519348 z m 1.35754,0 c -0.287188,0 -0.519865,0.232432 -0.519865,0.519348 0,0.286916 0.232677,0.519865 0.519865,0.519865 0.287188,0 0.519865,-0.232949 0.519865,-0.519865 0,-0.286916 -0.232677,-0.519348 -0.519865,-0.519348 z m 2.71508,0 c -0.287188,0 -0.519865,0.232432 -0.519865,0.519348 0,0.286916 0.232677,0.519865 0.519865,0.519865 0.287188,0 0.519865,-0.232949 0.519865,-0.519865 0,-0.286916 -0.232677,-0.519348 -0.519865,-0.519348 z m 2.71508,0 c -0.287188,0 -0.520382,0.232432 -0.520382,0.519348 0,0.286916 0.233194,0.519865 0.520382,0.519865 0.287188,0 0.519865,-0.232949 0.519865,-0.519865 0,-0.286916 -0.232677,-0.519348 -0.519865,-0.519348 z m 1.35754,0 c -0.287188,0 -0.520382,0.232432 -0.520382,0.519348 0,0.286916 0.233194,0.519865 0.520382,0.519865 0.287188,0 0.519865,-0.232949 0.519865,-0.519865 0,-0.286916 -0.232677,-0.519348 -0.519865,-0.519348 z m 1.357539,0 c -0.287188,0 -0.520381,0.232432 -0.520381,0.519348 0,0.286916 0.233193,0.519865 0.520381,0.519865 0.287188,0 0.519865,-0.232949 0.519865,-0.519865 0,-0.286916 -0.232677,-0.519348 -0.519865,-0.519348 z m 1.35754,0 c -0.287188,0 -0.520381,0.232432 -0.520381,0.519348 0,0.286916 0.233193,0.519865 0.520381,0.519865 0.287188,0 0.519865,-0.232949 0.519865,-0.519865 0,-0.286916 -0.232677,-0.519348 -0.519865,-0.519348 z m 6.787183,0 c -0.287188,0 -0.519865,0.232432 -0.519865,0.519348 0,0.286916 0.232677,0.519865 0.519865,0.519865 0.287188,0 0.519865,-0.232949 0.519865,-0.519865 0,-0.286916 -0.232677,-0.519348 -0.519865,-0.519348 z m 1.35754,0 c -0.287188,0 -0.519865,0.232432 -0.519865,0.519348 0,0.286916 0.232677,0.519865 0.519865,0.519865 0.287188,0 0.519865,-0.232949 0.519865,-0.519865 0,-0.286916 -0.232677,-0.519348 -0.519865,-0.519348 z" /></svg>
