<?xml version="1.0" encoding="UTF-8" standalone="no"?>
<!-- Created with Inkscape (http://www.inkscape.org/) -->

<svg
   width="450"
   height="50"
   viewBox="0 0 119.0625 13.229167"
   version="1.1"
   id="svg1"
   xml:space="preserve"
   sodipodi:docname="logo.svg"
   inkscape:version="1.4.2 (ebf0e940, 2025-05-08)"
   xmlns:inkscape="http://www.inkscape.org/namespaces/inkscape"
   xmlns:sodipodi="http://sodipodi.sourceforge.net/DTD/sodipodi-0.dtd"
   xmlns="http://www.w3.org/2000/svg"
   xmlns:svg="http://www.w3.org/2000/svg"><sodipodi:namedview
     id="namedview1"
     pagecolor="#ffffff"
     bordercolor="#000000"
     borderopacity="0.25"
     inkscape:showpageshadow="2"
     inkscape:pageopacity="0.0"
     inkscape:pagecheckerboard="0"
     inkscape:deskcolor="#d1d1d1"
     inkscape:document-units="mm"
     showguides="false"
     inkscape:zoom="0.64999984"
     inkscape:cx="193.8462"
     inkscape:cy="36.923086"
     inkscape:window-width="1920"
     inkscape:window-height="967"
     inkscape:window-x="0"
     inkscape:window-y="25"
     inkscape:window-maximized="0"
     inkscape:current-layer="svg1"><sodipodi:guide
       position="2.9878991,-0.55113357"
       orientation="0,-1"
       id="guide1"
       inkscape:locked="false" /><sodipodi:guide
       position="23.671507,-1.9449485"
       orientation="0,-1"
       id="guide2"
       inkscape:locked="false" /><sodipodi:guide
       position="16.039294,-3.1661027"
       orientation="0,-1"
       id="guide3"
       inkscape:locked="false" /><sodipodi:guide
       position="19.804519,-4.4890197"
       orientation="0,-1"
       id="guide4"
       inkscape:locked="false" /><sodipodi:guide
       position="26.826155,-5.9136995"
       orientation="0,-1"
       id="guide5"
       inkscape:locked="false" /><sodipodi:guide
       position="12.579357,-7.3383795"
       orientation="0,-1"
       id="guide6"
       inkscape:locked="false" /><sodipodi:guide
       position="3.5995353,-8.6283295"
       orientation="0,-1"
       id="guide7"
       inkscape:locked="false" /><sodipodi:guide
       position="4.5400926,11.996563"
       orientation="1,0"
       id="guide8"
       inkscape:locked="false" /><sodipodi:guide
       position="5.7612468,14.845922"
       orientation="1,0"
       id="guide9"
       inkscape:locked="false" /></sodipodi:namedview><defs
     id="defs1" /><path
     id="path593"
     style="font-variation-settings:'wdth' 87, 'wght' 700;paint-order:markers fill stroke"
     d="M 0.7503418,0 C 0.3364005,0 0,0.335243 0,0.748792 c 0,0.41355 0.3364005,0.748275 0.7503418,0.748275 0.4139414,0 0.7493083,-0.334725 0.7493083,-0.748275 C 1.4996501,0.335243 1.1642832,0 0.7503418,0 Z m 1.9564697,0 c -0.4139414,0 -0.749825,0.335243 -0.749825,0.748792 0,0.41355 0.3358836,0.748275 0.749825,0.748275 0.4139414,0 0.7493083,-0.334725 0.7493083,-0.748275 C 3.4561198,0.335243 3.1207529,0 2.7068115,0 Z m 1.955953,0 C 4.2488231,0 3.9134562,0.335243 3.9134562,0.748792 c 0,0.41355 0.3353669,0.748275 0.7493083,0.748275 0.4139429,0 0.749825,-0.334725 0.749825,-0.748275 C 5.4125895,0.335243 5.0767074,0 4.6627645,0 Z M 6.6192342,0 C 6.2052928,0 5.869926,0.335243 5.869926,0.748792 c 0,0.41355 0.3353668,0.748275 0.7493082,0.748275 0.4139414,0 0.7503418,-0.334725 0.7503418,-0.748275 C 7.369576,0.335243 7.0331756,0 6.6192342,0 Z M 8.5762207,0 C 8.1622793,0 7.8269125,0.335243 7.8269125,0.748792 c 0,0.41355 0.3353668,0.748275 0.7493082,0.748275 0.4139413,0 0.7498251,-0.334725 0.7498251,-0.748275 C 9.3260458,0.335243 8.990162,0 8.5762207,0 Z M 14.65802,0 c -0.41394,0 -0.749308,0.335243 -0.749308,0.748792 0,0.41355 0.335368,0.748275 0.749308,0.748275 0.413943,0 0.749308,-0.334725 0.749308,-0.748275 C 15.407328,0.335243 15.071962,0 14.65802,0 Z m 1.956986,0 c -0.41394,0 -0.749307,0.335243 -0.749307,0.748792 0,0.41355 0.335367,0.748275 0.749307,0.748275 0.413943,0 0.749308,-0.334725 0.749308,-0.748275 C 17.364314,0.335243 17.028948,0 16.615006,0 Z m 1.95647,0 c -0.413942,0 -0.749309,0.335243 -0.749309,0.748792 0,0.41355 0.335367,0.748275 0.749309,0.748275 0.413941,0 0.749308,-0.334725 0.749308,-0.748275 C 19.320784,0.335243 18.985417,0 18.571476,0 Z m 6.082833,0 c -0.413941,0 -0.750342,0.335243 -0.750342,0.748792 0,0.41355 0.336401,0.748275 0.750342,0.748275 0.413942,0 0.749308,-0.334725 0.749308,-0.748275 C 25.403617,0.335243 25.06825,0 24.654309,0 Z m 1.956469,0 c -0.413942,0 -0.749825,0.335243 -0.749825,0.748792 0,0.41355 0.335883,0.748275 0.749825,0.748275 0.413941,0 0.749309,-0.334725 0.749309,-0.748275 C 27.360087,0.335243 27.024719,0 26.610778,0 Z m 1.95647,0 c -0.413942,0 -0.749825,0.335243 -0.749825,0.748792 0,0.41355 0.335883,0.748275 0.749825,0.748275 0.413941,0 0.749308,-0.334725 0.749308,-0.748275 C 29.316556,0.335243 28.981189,0 28.567248,0 Z m 1.955953,0 c -0.413941,0 -0.749308,0.335243 -0.749308,0.748792 0,0.41355 0.335368,0.748275 0.749308,0.748275 0.413942,0 0.750342,-0.334725 0.750342,-0.748275 C 31.273543,0.335243 30.937143,0 30.523201,0 Z m 6.082316,0 c -0.413942,0 -0.749308,0.335243 -0.749308,0.748792 0,0.41355 0.335366,0.748275 0.749308,0.748275 0.413942,0 0.749308,-0.334725 0.749308,-0.748275 C 37.354825,0.335243 37.019459,0 36.605517,0 Z m 1.95647,0 c -0.413941,0 -0.749307,0.335243 -0.749307,0.748792 0,0.41355 0.335366,0.748275 0.749307,0.748275 0.413942,0 0.749308,-0.334725 0.749308,-0.748275 C 39.311295,0.335243 38.975929,0 38.561987,0 Z m 1.956987,0 c -0.413942,0 -0.749308,0.335243 -0.749308,0.748792 0,0.41355 0.335366,0.748275 0.749308,0.748275 0.413941,0 0.749308,-0.334725 0.749308,-0.748275 C 41.268282,0.335243 40.932914,0 40.518974,0 Z m 1.95647,0 c -0.413941,0 -0.749308,0.335243 -0.749308,0.748792 0,0.41355 0.335367,0.748275 0.749308,0.748275 0.413942,0 0.749308,-0.334725 0.749308,-0.748275 C 43.224752,0.335243 42.889386,0 42.475444,0 Z m 1.956987,0 c -0.413942,0 -0.749309,0.335243 -0.749309,0.748792 0,0.41355 0.335367,0.748275 0.749309,0.748275 0.413941,0 0.749308,-0.334725 0.749308,-0.748275 C 45.181739,0.335243 44.846372,0 44.432431,0 Z m 4.125846,0 c -0.413942,0 -0.750342,0.335243 -0.750342,0.748792 0,0.41355 0.336399,0.748275 0.750342,0.748275 0.413941,0 0.749308,-0.334725 0.749308,-0.748275 C 49.307585,0.335243 48.972218,0 48.558277,0 Z M 78.54456,0 c -0.413941,0 -0.750342,0.335243 -0.750342,0.748792 0,0.41355 0.3364,0.748275 0.750342,0.748275 0.413942,0 0.749309,-0.334725 0.749309,-0.748275 C 79.293869,0.335243 78.958501,0 78.54456,0 Z m 1.95647,0 c -0.413941,0 -0.749826,0.335243 -0.749826,0.748792 0,0.41355 0.335884,0.748275 0.749826,0.748275 0.413942,0 0.749307,-0.334725 0.749307,-0.748275 C 81.250337,0.335243 80.914972,0 80.50103,0 Z m 1.955952,0 c -0.413942,0 -0.749308,0.335243 -0.749308,0.748792 0,0.41355 0.335366,0.748275 0.749308,0.748275 0.413941,0 0.750342,-0.334725 0.750342,-0.748275 C 83.207324,0.335243 82.870924,0 82.456982,0 Z m 31.942758,0 c -0.41394,0 -0.74931,0.335243 -0.74931,0.748792 0,0.41355 0.33537,0.748275 0.74931,0.748275 0.41394,0 0.74931,-0.334725 0.74931,-0.748275 C 115.14905,0.335243 114.81368,0 114.39974,0 Z M 0.7503418,1.955437 C 0.3364005,1.955437 0,2.290161 0,2.703711 0,3.11726 0.3364005,3.4530195 0.7503418,3.4530195 c 0.4139414,0 0.7493083,-0.3357595 0.7493083,-0.7493085 0,-0.41355 -0.3353669,-0.748274 -0.7493083,-0.748274 z m 11.9512082,0 c -0.413941,0 -0.749308,0.334724 -0.749308,0.748274 0,0.413549 0.335367,0.7493085 0.749308,0.7493085 0.413941,0 0.749309,-0.3357595 0.749309,-0.7493085 0,-0.41355 -0.335368,-0.748274 -0.749309,-0.748274 z m 7.826912,0 c -0.413941,0 -0.749308,0.334724 -0.749308,0.748274 0,0.413549 0.335368,0.7493085 0.749308,0.7493085 0.413941,0 0.749309,-0.3357595 0.749309,-0.7493085 0,-0.41355 -0.335368,-0.748274 -0.749309,-0.748274 z m 4.125847,0 c -0.413941,0 -0.750342,0.334724 -0.750342,0.748274 0,0.413549 0.336401,0.7493085 0.750342,0.7493085 0.413942,0 0.749308,-0.3357595 0.749308,-0.7493085 0,-0.41355 -0.335367,-0.748274 -0.749308,-0.748274 z m 7.82588,0 c -0.413941,0 -0.74931,0.334724 -0.74931,0.748274 0,0.413549 0.335369,0.7493085 0.74931,0.7493085 0.413941,0 0.749825,-0.3357595 0.749825,-0.7493085 0,-0.41355 -0.335884,-0.748274 -0.749825,-0.748274 z m 8.038785,0 c -0.413942,0 -0.749308,0.334724 -0.749308,0.748274 0,0.413549 0.335366,0.7493085 0.749308,0.7493085 0.413941,0 0.749308,-0.3357595 0.749308,-0.7493085 0,-0.41355 -0.335368,-0.748274 -0.749308,-0.748274 z m 36.0686,0 c -0.413943,0 -0.749825,0.334724 -0.749825,0.748274 0,0.413549 0.335882,0.7493085 0.749825,0.7493085 0.41394,0 0.749308,-0.3357595 0.749308,-0.7493085 0,-0.41355 -0.335368,-0.748274 -0.749308,-0.748274 z m 7.826395,0 c -0.413942,0 -0.749308,0.334724 -0.749308,0.748274 0,0.413549 0.335366,0.7493085 0.749308,0.7493085 0.413941,0 0.749825,-0.3357595 0.749825,-0.7493085 0,-0.41355 -0.335884,-0.748274 -0.749825,-0.748274 z m 29.985771,0 c -0.41394,0 -0.74931,0.334724 -0.74931,0.748274 0,0.413549 0.33537,0.7493085 0.74931,0.7493085 0.41394,0 0.74931,-0.3357595 0.74931,-0.7493085 0,-0.41355 -0.33537,-0.748274 -0.74931,-0.748274 z M 0.7503418,3.910356 C 0.3364005,3.910356 0,4.2455975 0,4.6591475 c 0,0.413549 0.3364005,0.7493082 0.7503418,0.7493082 0.4139414,0 0.7493083,-0.3357592 0.7493083,-0.7493082 0,-0.41355 -0.3353669,-0.7487915 -0.7493083,-0.7487915 z m 11.9512082,0 c -0.413941,0 -0.749308,0.3352415 -0.749308,0.7487915 0,0.413549 0.335367,0.7493082 0.749308,0.7493082 0.413941,0 0.749309,-0.3357592 0.749309,-0.7493082 0,-0.41355 -0.335368,-0.7487915 -0.749309,-0.7487915 z m 11.952759,0 c -0.413942,0 -0.750342,0.3352415 -0.750342,0.7487915 0,0.413549 0.3364,0.7493082 0.750342,0.7493082 0.413941,0 0.749308,-0.3357592 0.749308,-0.7493082 0,-0.41355 -0.335367,-0.7487915 -0.749308,-0.7487915 z m 7.825879,0 c -0.413941,0 -0.749309,0.3352415 -0.749309,0.7487915 0,0.413549 0.335368,0.7493082 0.749309,0.7493082 0.413941,0 0.749825,-0.3357592 0.749825,-0.7493082 0,-0.41355 -0.335884,-0.7487915 -0.749825,-0.7487915 z m 8.038786,0 c -0.413942,0 -0.749308,0.3352415 -0.749308,0.7487915 0,0.413549 0.335366,0.7493082 0.749308,0.7493082 0.413941,0 0.749308,-0.3357592 0.749308,-0.7493082 0,-0.41355 -0.335368,-0.7487915 -0.749308,-0.7487915 z m 8.039303,0 c -0.413942,0 -0.750342,0.3352415 -0.750342,0.7487915 0,0.413549 0.336399,0.7493082 0.750342,0.7493082 0.413941,0 0.749308,-0.3357592 0.749308,-0.7493082 0,-0.41355 -0.335367,-0.7487915 -0.749308,-0.7487915 z m 4.125329,0 c -0.413941,0 -0.749825,0.3352415 -0.749825,0.7487915 0,0.413549 0.335884,0.7493082 0.749825,0.7493082 0.413942,0 0.749309,-0.3357592 0.749309,-0.7493082 0,-0.41355 -0.335367,-0.7487915 -0.749309,-0.7487915 z m 1.956987,0 c -0.413942,0 -0.750343,0.3352415 -0.750343,0.7487915 0,0.413549 0.3364,0.7493082 0.750343,0.7493082 0.413941,0 0.749308,-0.3357592 0.749308,-0.7493082 0,-0.41355 -0.335367,-0.7487915 -0.749308,-0.7487915 z m 1.955953,0 c -0.413942,0 -0.749308,0.3352415 -0.749308,0.7487915 0,0.413549 0.335366,0.7493082 0.749308,0.7493082 0.413941,0 0.749825,-0.3357592 0.749825,-0.7493082 0,-0.41355 -0.335884,-0.7487915 -0.749825,-0.7487915 z m 1.95647,0 c -0.413941,0 -0.749309,0.3352415 -0.749309,0.7487915 0,0.413549 0.335368,0.7493082 0.749309,0.7493082 0.413941,0 0.750341,-0.3357592 0.750341,-0.7493082 0,-0.41355 -0.3364,-0.7487915 -0.750341,-0.7487915 z m 8.038785,0 c -0.413941,0 -0.749308,0.3352415 -0.749308,0.7487915 0,0.413549 0.335367,0.7493082 0.749308,0.7493082 0.413941,0 0.749309,-0.3357592 0.749309,-0.7493082 0,-0.41355 -0.335369,-0.7487915 -0.749309,-0.7487915 z m 1.956987,0 c -0.413943,0 -0.749308,0.3352415 -0.749308,0.7487915 0,0.413549 0.335365,0.7493082 0.749308,0.7493082 0.41394,0 0.749308,-0.3357592 0.749308,-0.7493082 0,-0.41355 -0.335368,-0.7487915 -0.749308,-0.7487915 z m 1.956469,0 c -0.41394,0 -0.749308,0.3352415 -0.749308,0.7487915 0,0.413549 0.335368,0.7493082 0.749308,0.7493082 0.413941,0 0.749308,-0.3357592 0.749308,-0.7493082 0,-0.41355 -0.335367,-0.7487915 -0.749308,-0.7487915 z m 6.082317,0 c -0.413943,0 -0.749825,0.3352415 -0.749825,0.7487915 0,0.413549 0.335882,0.7493082 0.749825,0.7493082 0.41394,0 0.749308,-0.3357592 0.749308,-0.7493082 0,-0.41355 -0.335368,-0.7487915 -0.749308,-0.7487915 z m 13.908195,0 c -0.413941,0 -0.749309,0.3352415 -0.749309,0.7487915 0,0.413549 0.335368,0.7493082 0.749309,0.7493082 0.413942,0 0.749308,-0.3357592 0.749308,-0.7493082 0,-0.41355 -0.335366,-0.7487915 -0.749308,-0.7487915 z m 1.956986,0 c -0.413941,0 -0.749308,0.3352415 -0.749308,0.7487915 0,0.413549 0.335367,0.7493082 0.749308,0.7493082 0.413942,0 0.749309,-0.3357592 0.749309,-0.7493082 0,-0.41355 -0.335367,-0.7487915 -0.749309,-0.7487915 z m 1.95647,0 c -0.413942,0 -0.749308,0.3352415 -0.749308,0.7487915 0,0.413549 0.335366,0.7493082 0.749308,0.7493082 0.413941,0 0.749308,-0.3357592 0.749308,-0.7493082 0,-0.41355 -0.335367,-0.7487915 -0.749308,-0.7487915 z m 1.956986,0 c -0.413941,0 -0.749308,0.3352415 -0.749308,0.7487915 0,0.413549 0.335367,0.7493082 0.749308,0.7493082 0.413941,0 0.749309,-0.3357592 0.749309,-0.7493082 0,-0.41355 -0.335368,-0.7487915 -0.749309,-0.7487915 z m 6.082319,0 c -0.41394,0 -0.75034,0.3352415 -0.75034,0.7487915 0,0.413549 0.3364,0.7493082 0.75034,0.7493082 0.41394,0 0.74931,-0.3357592 0.74931,-0.7493082 0,-0.41355 -0.33537,-0.7487915 -0.74931,-0.7487915 z m 1.95647,0 c -0.41395,0 -0.74983,0.3352415 -0.74983,0.7487915 0,0.413549 0.33588,0.7493082 0.74983,0.7493082 0.41394,0 0.74931,-0.3357592 0.74931,-0.7493082 0,-0.41355 -0.33537,-0.7487915 -0.74931,-0.7487915 z m 1.95698,0 c -0.41394,0 -0.75034,0.3352415 -0.75034,0.7487915 0,0.413549 0.3364,0.7493082 0.75034,0.7493082 0.41394,0 0.74931,-0.3357592 0.74931,-0.7493082 0,-0.41355 -0.33537,-0.7487915 -0.74931,-0.7487915 z m 1.95596,0 c -0.41394,0 -0.74931,0.3352415 -0.74931,0.7487915 0,0.413549 0.33537,0.7493082 0.74931,0.7493082 0.41395,0 0.74982,-0.3357592 0.74982,-0.7493082 0,-0.41355 -0.33587,-0.7487915 -0.74982,-0.7487915 z m 4.12533,0 c -0.41394,0 -0.74931,0.3352415 -0.74931,0.7487915 0,0.413549 0.33537,0.7493082 0.74931,0.7493082 0.41395,0 0.74982,-0.3357592 0.74982,-0.7493082 0,-0.41355 -0.33587,-0.7487915 -0.74982,-0.7487915 z m 1.95647,0 c -0.41394,0 -0.74931,0.3352415 -0.74931,0.7487915 0,0.413549 0.33537,0.7493082 0.74931,0.7493082 0.41394,0 0.74931,-0.3357592 0.74931,-0.7493082 0,-0.41355 -0.33537,-0.7487915 -0.74931,-0.7487915 z m 1.95698,0 c -0.41394,0 -0.7493,0.3352415 -0.7493,0.7487915 0,0.413549 0.33536,0.7493082 0.7493,0.7493082 0.41394,0 0.74931,-0.3357592 0.74931,-0.7493082 0,-0.41355 -0.33537,-0.7487915 -0.74931,-0.7487915 z m 1.95647,0 c -0.41395,0 -0.74931,0.3352415 -0.74931,0.7487915 0,0.413549 0.33536,0.7493082 0.74931,0.7493082 0.41394,0 0.74931,-0.3357592 0.74931,-0.7493082 0,-0.41355 -0.33537,-0.7487915 -0.74931,-0.7487915 z M 0.7503418,5.8657922 C 0.3364005,5.8657922 0,6.2005189 0,6.6140669 c 0,0.413549 0.3364005,0.7493083 0.7503418,0.7493083 0.4139414,0 0.7493083,-0.3357593 0.7493083,-0.7493083 0,-0.413548 -0.3353669,-0.7482747 -0.7493083,-0.7482747 z m 1.9564697,0 c -0.4139414,0 -0.749825,0.3347267 -0.749825,0.7482747 0,0.413549 0.3358836,0.7493083 0.749825,0.7493083 0.4139414,0 0.7493083,-0.3357593 0.7493083,-0.7493083 0,-0.413548 -0.3353669,-0.7482747 -0.7493083,-0.7482747 z m 1.955953,0 c -0.4139414,0 -0.7493083,0.3347267 -0.7493083,0.7482747 0,0.413549 0.3353669,0.7493083 0.7493083,0.7493083 0.4139429,0 0.749825,-0.3357593 0.749825,-0.7493083 0,-0.413548 -0.3358821,-0.7482747 -0.749825,-0.7482747 z m 1.9564697,0 c -0.4139414,0 -0.7493082,0.3347267 -0.7493082,0.7482747 0,0.413549 0.3353668,0.7493083 0.7493082,0.7493083 0.4139414,0 0.7503418,-0.3357593 0.7503418,-0.7493083 0,-0.413548 -0.3364004,-0.7482747 -0.7503418,-0.7482747 z m 8.0387858,0 c -0.41394,0 -0.749308,0.3347267 -0.749308,0.7482747 0,0.413549 0.335368,0.7493083 0.749308,0.7493083 0.413943,0 0.749308,-0.3357593 0.749308,-0.7493083 0,-0.413548 -0.335366,-0.7482747 -0.749308,-0.7482747 z m 1.956986,0 c -0.41394,0 -0.749307,0.3347267 -0.749307,0.7482747 0,0.413549 0.335367,0.7493083 0.749307,0.7493083 0.413943,0 0.749308,-0.3357593 0.749308,-0.7493083 0,-0.413548 -0.335366,-0.7482747 -0.749308,-0.7482747 z m 1.95647,0 c -0.413942,0 -0.749309,0.3347267 -0.749309,0.7482747 0,0.413549 0.335367,0.7493083 0.749309,0.7493083 0.413941,0 0.749308,-0.3357593 0.749308,-0.7493083 0,-0.413548 -0.335367,-0.7482747 -0.749308,-0.7482747 z m 6.082833,0 c -0.413941,0 -0.750342,0.3347267 -0.750342,0.7482747 0,0.413549 0.336401,0.7493083 0.750342,0.7493083 0.413942,0 0.749308,-0.3357593 0.749308,-0.7493083 0,-0.413548 -0.335367,-0.7482747 -0.749308,-0.7482747 z m 1.956469,0 c -0.413942,0 -0.749825,0.3347267 -0.749825,0.7482747 0,0.413549 0.335883,0.7493083 0.749825,0.7493083 0.413941,0 0.749309,-0.3357593 0.749309,-0.7493083 0,-0.413548 -0.335368,-0.7482747 -0.749309,-0.7482747 z m 1.95647,0 c -0.413942,0 -0.749825,0.3347267 -0.749825,0.7482747 0,0.413549 0.335883,0.7493083 0.749825,0.7493083 0.413941,0 0.749308,-0.3357593 0.749308,-0.7493083 0,-0.413548 -0.335367,-0.7482747 -0.749308,-0.7482747 z m 1.955953,0 c -0.413941,0 -0.749308,0.3347267 -0.749308,0.7482747 0,0.413549 0.335368,0.7493083 0.749308,0.7493083 0.413942,0 0.750342,-0.3357593 0.750342,-0.7493083 0,-0.413548 -0.3364,-0.7482747 -0.750342,-0.7482747 z m 9.995773,0 c -0.413942,0 -0.749308,0.3347267 -0.749308,0.7482747 0,0.413549 0.335366,0.7493083 0.749308,0.7493083 0.413941,0 0.749308,-0.3357593 0.749308,-0.7493083 0,-0.413548 -0.335368,-0.7482747 -0.749308,-0.7482747 z m 8.039303,0 c -0.413942,0 -0.750342,0.3347267 -0.750342,0.7482747 0,0.413549 0.336399,0.7493083 0.750342,0.7493083 0.413941,0 0.749308,-0.3357593 0.749308,-0.7493083 0,-0.413548 -0.335367,-0.7482747 -0.749308,-0.7482747 z m 4.125329,0 c -0.413941,0 -0.749825,0.3347267 -0.749825,0.7482747 0,0.413549 0.335884,0.7493083 0.749825,0.7493083 0.413942,0 0.749309,-0.3357593 0.749309,-0.7493083 0,-0.413548 -0.335367,-0.7482747 -0.749309,-0.7482747 z m 3.91294,0 c -0.413942,0 -0.749308,0.3347267 -0.749308,0.7482747 0,0.413549 0.335366,0.7493083 0.749308,0.7493083 0.413941,0 0.749825,-0.3357593 0.749825,-0.7493083 0,-0.413548 -0.335884,-0.7482747 -0.749825,-0.7482747 z m 3.913456,0 c -0.413942,0 -0.749308,0.3347267 -0.749308,0.7482747 0,0.413549 0.335366,0.7493083 0.749308,0.7493083 0.413941,0 0.749825,-0.3357593 0.749825,-0.7493083 0,-0.413548 -0.335884,-0.7482747 -0.749825,-0.7482747 z m 4.12533,0 c -0.413943,0 -0.749309,0.3347267 -0.749309,0.7482747 0,0.413549 0.335366,0.7493083 0.749309,0.7493083 0.41394,0 0.749308,-0.3357593 0.749308,-0.7493083 0,-0.413548 -0.335368,-0.7482747 -0.749308,-0.7482747 z m 7.826911,0 c -0.413942,0 -0.749308,0.3347267 -0.749308,0.7482747 0,0.413549 0.335366,0.7493083 0.749308,0.7493083 0.413943,0 0.749308,-0.3357593 0.749308,-0.7493083 0,-0.413548 -0.335365,-0.7482747 -0.749308,-0.7482747 z m 4.125331,0 c -0.413943,0 -0.749825,0.3347267 -0.749825,0.7482747 0,0.413549 0.335882,0.7493083 0.749825,0.7493083 0.41394,0 0.749308,-0.3357593 0.749308,-0.7493083 0,-0.413548 -0.335368,-0.7482747 -0.749308,-0.7482747 z m 11.951724,0 c -0.413942,0 -0.749307,0.3347267 -0.749307,0.7482747 0,0.413549 0.335365,0.7493083 0.749307,0.7493083 0.413941,0 0.749308,-0.3357593 0.749308,-0.7493083 0,-0.413548 -0.335367,-0.7482747 -0.749308,-0.7482747 z m 7.826913,0 c -0.413941,0 -0.749308,0.3347267 -0.749308,0.7482747 0,0.413549 0.335367,0.7493083 0.749308,0.7493083 0.413941,0 0.749309,-0.3357593 0.749309,-0.7493083 0,-0.413548 -0.335368,-0.7482747 -0.749309,-0.7482747 z m 4.125329,0 c -0.41394,0 -0.749824,0.3347267 -0.749824,0.7482747 0,0.413549 0.335884,0.7493083 0.749824,0.7493083 0.41394,0 0.74931,-0.3357593 0.74931,-0.7493083 0,-0.413548 -0.33537,-0.7482747 -0.74931,-0.7482747 z m 13.9082,0 c -0.41394,0 -0.74931,0.3347267 -0.74931,0.7482747 0,0.413549 0.33537,0.7493083 0.74931,0.7493083 0.41394,0 0.74931,-0.3357593 0.74931,-0.7493083 0,-0.413548 -0.33537,-0.7482747 -0.74931,-0.7482747 z M 0.7503418,7.8207116 C 0.3364005,7.8207116 0,8.1559541 0,8.5695031 c 0,0.413549 0.3364005,0.7493083 0.7503418,0.7493083 0.4139414,0 0.7493083,-0.3357593 0.7493083,-0.7493083 0,-0.413549 -0.3353669,-0.7487915 -0.7493083,-0.7487915 z m 19.7781202,0 c -0.413941,0 -0.749308,0.3352425 -0.749308,0.7487915 0,0.413549 0.335367,0.7493083 0.749308,0.7493083 0.413941,0 0.749309,-0.3357593 0.749309,-0.7493083 0,-0.413549 -0.335368,-0.7487915 -0.749309,-0.7487915 z m 4.125847,0 c -0.413942,0 -0.750342,0.3352425 -0.750342,0.7487915 0,0.413549 0.3364,0.7493083 0.750342,0.7493083 0.413941,0 0.749308,-0.3357593 0.749308,-0.7493083 0,-0.413549 -0.335367,-0.7487915 -0.749308,-0.7487915 z m 15.864664,0 c -0.413941,0 -0.749308,0.3352425 -0.749308,0.7487915 0,0.413549 0.335367,0.7493083 0.749308,0.7493083 0.413941,0 0.749309,-0.3357593 0.749309,-0.7493083 0,-0.413549 -0.335368,-0.7487915 -0.749309,-0.7487915 z m 8.039303,0 c -0.413942,0 -0.750342,0.3352425 -0.750342,0.7487915 0,0.413549 0.3364,0.7493083 0.750342,0.7493083 0.413941,0 0.749308,-0.3357593 0.749308,-0.7493083 0,-0.413549 -0.335367,-0.7487915 -0.749308,-0.7487915 z m 4.125329,0 c -0.413941,0 -0.749825,0.3352425 -0.749825,0.7487915 0,0.413549 0.335884,0.7493083 0.749825,0.7493083 0.413942,0 0.749309,-0.3357593 0.749309,-0.7493083 0,-0.413549 -0.335367,-0.7487915 -0.749309,-0.7487915 z m 3.91294,0 c -0.413942,0 -0.749308,0.3352425 -0.749308,0.7487915 0,0.413549 0.335366,0.7493083 0.749308,0.7493083 0.413941,0 0.749825,-0.3357593 0.749825,-0.7493083 0,-0.413549 -0.335884,-0.7487915 -0.749825,-0.7487915 z m 3.913456,0 c -0.413941,0 -0.749308,0.3352425 -0.749308,0.7487915 0,0.413549 0.335367,0.7493083 0.749308,0.7493083 0.413942,0 0.749825,-0.3357593 0.749825,-0.7493083 0,-0.413549 -0.335883,-0.7487915 -0.749825,-0.7487915 z m 4.12533,0 c -0.413942,0 -0.749309,0.3352425 -0.749309,0.7487915 0,0.413549 0.335367,0.7493083 0.749309,0.7493083 0.413941,0 0.749308,-0.3357593 0.749308,-0.7493083 0,-0.413549 -0.335367,-0.7487915 -0.749308,-0.7487915 z m 1.956469,0 c -0.413941,0 -0.749308,0.3352425 -0.749308,0.7487915 0,0.413549 0.335367,0.7493083 0.749308,0.7493083 0.413941,0 0.749309,-0.3357593 0.749309,-0.7493083 0,-0.413549 -0.335368,-0.7487915 -0.749309,-0.7487915 z m 1.956987,0 c -0.413942,0 -0.749308,0.3352425 -0.749308,0.7487915 0,0.413549 0.335366,0.7493083 0.749308,0.7493083 0.413941,0 0.749308,-0.3357593 0.749308,-0.7493083 0,-0.413549 -0.335367,-0.7487915 -0.749308,-0.7487915 z m 1.95647,0 c -0.413941,0 -0.749309,0.3352425 -0.749309,0.7487915 0,0.413549 0.335368,0.7493083 0.749309,0.7493083 0.413941,0 0.749308,-0.3357593 0.749308,-0.7493083 0,-0.413549 -0.335367,-0.7487915 -0.749308,-0.7487915 z m 1.956986,0 c -0.413942,0 -0.749308,0.3352425 -0.749308,0.7487915 0,0.413549 0.335366,0.7493083 0.749308,0.7493083 0.413942,0 0.749308,-0.3357593 0.749308,-0.7493083 0,-0.413549 -0.335366,-0.7487915 -0.749308,-0.7487915 z m 4.12533,0 c -0.413942,0 -0.749825,0.3352425 -0.749825,0.7487915 0,0.413549 0.335883,0.7493083 0.749825,0.7493083 0.413941,0 0.749308,-0.3357593 0.749308,-0.7493083 0,-0.413549 -0.335367,-0.7487915 -0.749308,-0.7487915 z m 11.951725,0 c -0.413942,0 -0.749308,0.3352425 -0.749308,0.7487915 0,0.413549 0.335366,0.7493083 0.749308,0.7493083 0.413941,0 0.749308,-0.3357593 0.749308,-0.7493083 0,-0.413549 -0.335367,-0.7487915 -0.749308,-0.7487915 z m 7.826912,0 c -0.413941,0 -0.749308,0.3352425 -0.749308,0.7487915 0,0.413549 0.335367,0.7493083 0.749308,0.7493083 0.413941,0 0.749309,-0.3357593 0.749309,-0.7493083 0,-0.413549 -0.335368,-0.7487915 -0.749309,-0.7487915 z m 6.08232,0 c -0.41394,0 -0.75034,0.3352425 -0.75034,0.7487915 0,0.413549 0.3364,0.7493083 0.75034,0.7493083 0.41394,0 0.74931,-0.3357593 0.74931,-0.7493083 0,-0.413549 -0.33537,-0.7487915 -0.74931,-0.7487915 z m 1.95647,0 c -0.41395,0 -0.74983,0.3352425 -0.74983,0.7487915 0,0.413549 0.33588,0.7493083 0.74983,0.7493083 0.41394,0 0.74931,-0.3357593 0.74931,-0.7493083 0,-0.413549 -0.33537,-0.7487915 -0.74931,-0.7487915 z m 1.95698,0 c -0.41394,0 -0.75034,0.3352425 -0.75034,0.7487915 0,0.413549 0.3364,0.7493083 0.75034,0.7493083 0.41394,0 0.74931,-0.3357593 0.74931,-0.7493083 0,-0.413549 -0.33537,-0.7487915 -0.74931,-0.7487915 z m 8.03776,0 c -0.41394,0 -0.74931,0.3352425 -0.74931,0.7487915 0,0.413549 0.33537,0.7493083 0.74931,0.7493083 0.41394,0 0.74931,-0.3357593 0.74931,-0.7493083 0,-0.413549 -0.33537,-0.7487915 -0.74931,-0.7487915 z M 0.7503418,9.7761478 C 0.3364005,9.7761478 0,10.110874 0,10.524423 c 0,0.413549 0.3364005,0.749308 0.7503418,0.749308 0.4139414,0 0.7493083,-0.335759 0.7493083,-0.749308 0,-0.413549 -0.3353669,-0.7482752 -0.7493083,-0.7482752 z m 11.9512082,0 c -0.413941,0 -0.749308,0.3347262 -0.749308,0.7482752 0,0.413549 0.335367,0.749308 0.749308,0.749308 0.413941,0 0.749309,-0.335759 0.749309,-0.749308 0,-0.413549 -0.335368,-0.7482752 -0.749309,-0.7482752 z m 7.826912,0 c -0.413941,0 -0.749308,0.3347262 -0.749308,0.7482752 0,0.413549 0.335368,0.749308 0.749308,0.749308 0.413941,0 0.749309,-0.335759 0.749309,-0.749308 0,-0.413549 -0.335368,-0.7482752 -0.749309,-0.7482752 z m 4.125847,0 c -0.413941,0 -0.750342,0.3347262 -0.750342,0.7482752 0,0.413549 0.336401,0.749308 0.750342,0.749308 0.413942,0 0.749308,-0.335759 0.749308,-0.749308 0,-0.413549 -0.335367,-0.7482752 -0.749308,-0.7482752 z m 15.864665,0 c -0.413942,0 -0.749308,0.3347262 -0.749308,0.7482752 0,0.413549 0.335366,0.749308 0.749308,0.749308 0.413941,0 0.749308,-0.335759 0.749308,-0.749308 0,-0.413549 -0.335368,-0.7482752 -0.749308,-0.7482752 z m 8.039303,0 c -0.413942,0 -0.750342,0.3347262 -0.750342,0.7482752 0,0.413549 0.336399,0.749308 0.750342,0.749308 0.413941,0 0.749308,-0.335759 0.749308,-0.749308 0,-0.413549 -0.335367,-0.7482752 -0.749308,-0.7482752 z m 4.125329,0 c -0.413941,0 -0.749825,0.3347262 -0.749825,0.7482752 0,0.413549 0.335884,0.749308 0.749825,0.749308 0.413942,0 0.749309,-0.335759 0.749309,-0.749308 0,-0.413549 -0.335367,-0.7482752 -0.749309,-0.7482752 z m 3.91294,0 c -0.413942,0 -0.749308,0.3347262 -0.749308,0.7482752 0,0.413549 0.335366,0.749308 0.749308,0.749308 0.413941,0 0.749825,-0.335759 0.749825,-0.749308 0,-0.413549 -0.335884,-0.7482752 -0.749825,-0.7482752 z m 3.913456,0 c -0.413942,0 -0.749308,0.3347262 -0.749308,0.7482752 0,0.413549 0.335366,0.749308 0.749308,0.749308 0.413941,0 0.749825,-0.335759 0.749825,-0.749308 0,-0.413549 -0.335884,-0.7482752 -0.749825,-0.7482752 z m 4.12533,0 c -0.413943,0 -0.749309,0.3347262 -0.749309,0.7482752 0,0.413549 0.335366,0.749308 0.749309,0.749308 0.41394,0 0.749308,-0.335759 0.749308,-0.749308 0,-0.413549 -0.335368,-0.7482752 -0.749308,-0.7482752 z m 11.952242,0 c -0.413943,0 -0.749825,0.3347262 -0.749825,0.7482752 0,0.413549 0.335882,0.749308 0.749825,0.749308 0.41394,0 0.749308,-0.335759 0.749308,-0.749308 0,-0.413549 -0.335368,-0.7482752 -0.749308,-0.7482752 z m 7.826395,0 c -0.413942,0 -0.749308,0.3347262 -0.749308,0.7482752 0,0.413549 0.335366,0.749308 0.749308,0.749308 0.413941,0 0.749825,-0.335759 0.749825,-0.749308 0,-0.413549 -0.335884,-0.7482752 -0.749825,-0.7482752 z m 4.12533,0 c -0.413942,0 -0.749308,0.3347262 -0.749308,0.7482752 0,0.413549 0.335366,0.749308 0.749308,0.749308 0.413941,0 0.749308,-0.335759 0.749308,-0.749308 0,-0.413549 -0.335367,-0.7482752 -0.749308,-0.7482752 z m 5.869926,0 c -0.413942,0 -0.749308,0.3347262 -0.749308,0.7482752 0,0.413549 0.335366,0.749308 0.749308,0.749308 0.413941,0 0.749308,-0.335759 0.749308,-0.749308 0,-0.413549 -0.335367,-0.7482752 -0.749308,-0.7482752 z m 1.956986,0 c -0.413941,0 -0.749308,0.3347262 -0.749308,0.7482752 0,0.413549 0.335367,0.749308 0.749308,0.749308 0.413941,0 0.749309,-0.335759 0.749309,-0.749308 0,-0.413549 -0.335368,-0.7482752 -0.749309,-0.7482752 z m 11.951729,0 c -0.41394,0 -0.74931,0.3347262 -0.74931,0.7482752 0,0.413549 0.33537,0.749308 0.74931,0.749308 0.41395,0 0.74982,-0.335759 0.74982,-0.749308 0,-0.413549 -0.33587,-0.7482752 -0.74982,-0.7482752 z m 6.0818,0 c -0.41394,0 -0.74931,0.3347262 -0.74931,0.7482752 0,0.413549 0.33537,0.749308 0.74931,0.749308 0.41394,0 0.74931,-0.335759 0.74931,-0.749308 0,-0.413549 -0.33537,-0.7482752 -0.74931,-0.7482752 z M 0.7503418,11.731067 C 0.3364005,11.731067 0,12.06631 0,12.479859 c 0,0.413549 0.3364005,0.749308 0.7503418,0.749308 0.4139414,0 0.7493083,-0.335759 0.7493083,-0.749308 0,-0.413549 -0.3353669,-0.748792 -0.7493083,-0.748792 z m 1.9564697,0 c -0.4139414,0 -0.749825,0.335243 -0.749825,0.748792 0,0.413549 0.3358836,0.749308 0.749825,0.749308 0.4139414,0 0.7493083,-0.335759 0.7493083,-0.749308 0,-0.413549 -0.3353669,-0.748792 -0.7493083,-0.748792 z m 1.955953,0 c -0.4139414,0 -0.7493083,0.335243 -0.7493083,0.748792 0,0.413549 0.3353669,0.749308 0.7493083,0.749308 0.4139429,0 0.749825,-0.335759 0.749825,-0.749308 0,-0.413549 -0.3358821,-0.748792 -0.749825,-0.748792 z m 1.9564697,0 c -0.4139414,0 -0.7493082,0.335243 -0.7493082,0.748792 0,0.413549 0.3353668,0.749308 0.7493082,0.749308 0.4139414,0 0.7503418,-0.335759 0.7503418,-0.749308 0,-0.413549 -0.3364004,-0.748792 -0.7503418,-0.748792 z m 1.9569865,0 c -0.4139414,0 -0.7493082,0.335243 -0.7493082,0.748792 0,0.413549 0.3353668,0.749308 0.7493082,0.749308 0.4139413,0 0.7498251,-0.335759 0.7498251,-0.749308 0,-0.413549 -0.3358838,-0.748792 -0.7498251,-0.748792 z m 6.0817993,0 c -0.41394,0 -0.749308,0.335243 -0.749308,0.748792 0,0.413549 0.335368,0.749308 0.749308,0.749308 0.413943,0 0.749308,-0.335759 0.749308,-0.749308 0,-0.413549 -0.335366,-0.748792 -0.749308,-0.748792 z m 1.956986,0 c -0.41394,0 -0.749307,0.335243 -0.749307,0.748792 0,0.413549 0.335366,0.749308 0.749307,0.749308 0.413943,0 0.749308,-0.335759 0.749308,-0.749308 0,-0.413549 -0.335366,-0.748792 -0.749308,-0.748792 z m 1.95647,0 c -0.413942,0 -0.749309,0.335243 -0.749309,0.748792 0,0.413549 0.335367,0.749308 0.749309,0.749308 0.413941,0 0.749308,-0.335759 0.749308,-0.749308 0,-0.413549 -0.335367,-0.748792 -0.749308,-0.748792 z m 6.082833,0 c -0.413941,0 -0.750342,0.335243 -0.750342,0.748792 0,0.413549 0.336401,0.749308 0.750342,0.749308 0.413942,0 0.749308,-0.335759 0.749308,-0.749308 0,-0.413549 -0.335367,-0.748792 -0.749308,-0.748792 z m 15.864665,0 c -0.413942,0 -0.749308,0.335243 -0.749308,0.748792 0,0.413549 0.335366,0.749308 0.749308,0.749308 0.413941,0 0.749308,-0.335759 0.749308,-0.749308 0,-0.413549 -0.335368,-0.748792 -0.749308,-0.748792 z m 8.039303,0 c -0.413942,0 -0.750342,0.335243 -0.750342,0.748792 0,0.413549 0.336399,0.749308 0.750342,0.749308 0.413941,0 0.749308,-0.335759 0.749308,-0.749308 0,-0.413549 -0.335367,-0.748792 -0.749308,-0.748792 z m 4.125329,0 c -0.413941,0 -0.749825,0.335243 -0.749825,0.748792 -1e-6,0.413549 0.335883,0.749308 0.749824,0.749308 0.413942,0 0.749309,-0.335759 0.749309,-0.749308 0,-0.413549 -0.335367,-0.748792 -0.749308,-0.748792 z m 3.91294,0 c -0.413942,0 -0.749308,0.335243 -0.749308,0.748792 -10e-7,0.413549 0.335365,0.749308 0.749307,0.749308 0.413941,0 0.749825,-0.335759 0.749825,-0.749308 0,-0.413549 -0.335884,-0.748792 -0.749824,-0.748792 z m 3.913456,0 c -0.413942,0 -0.749308,0.335243 -0.749308,0.748792 0,0.413549 0.335366,0.749308 0.749308,0.749308 0.413941,0 0.749825,-0.335759 0.749825,-0.749308 0,-0.413549 -0.335884,-0.748792 -0.749825,-0.748792 z m 6.081799,0 c -0.413941,0 -0.749308,0.335243 -0.749308,0.748792 0,0.413549 0.335366,0.749308 0.749308,0.749308 0.41394,0 0.749309,-0.335759 0.749309,-0.749308 0,-0.413549 -0.335369,-0.748792 -0.749309,-0.748792 z m 1.956987,0 c -0.413943,0 -0.749308,0.335243 -0.749308,0.748792 0,0.413549 0.335365,0.749308 0.749308,0.749308 0.41394,0 0.749308,-0.335759 0.749308,-0.749308 0,-0.413549 -0.335368,-0.748792 -0.749308,-0.748792 z m 1.956469,0 c -0.41394,0 -0.749308,0.335243 -0.749308,0.748792 0,0.413549 0.335368,0.749308 0.749308,0.749308 0.413941,0 0.749308,-0.335759 0.749308,-0.749308 0,-0.413549 -0.335367,-0.748792 -0.749308,-0.748792 z m 8.039303,0 c -0.413941,0 -0.750342,0.335243 -0.750342,0.748792 0,0.413549 0.3364,0.749308 0.750342,0.749308 0.413942,0 0.749309,-0.335759 0.749309,-0.749308 0,-0.413549 -0.335368,-0.748792 -0.749309,-0.748792 z m 1.95647,0 c -0.413941,0 -0.749826,0.335243 -0.749826,0.748792 0,0.413549 0.335884,0.749308 0.749826,0.749308 0.413942,0 0.749307,-0.335759 0.749307,-0.749308 0,-0.413549 -0.335365,-0.748792 -0.749307,-0.748792 z m 1.955952,0 c -0.413942,0 -0.749308,0.335243 -0.749308,0.748792 0,0.413549 0.335367,0.749308 0.749308,0.749308 0.413941,0 0.750342,-0.335759 0.750342,-0.749308 0,-0.413549 -0.3364,-0.748792 -0.750342,-0.748792 z m 8.038786,0 c -0.41394,0 -0.749309,0.335243 -0.749309,0.748792 0,0.413549 0.335369,0.749308 0.749309,0.749308 0.413943,0 0.749308,-0.335759 0.749308,-0.749308 0,-0.413549 -0.335365,-0.748792 -0.749308,-0.748792 z m 1.956986,0 c -0.41394,0 -0.749308,0.335243 -0.749308,0.748792 0,0.413549 0.335368,0.749308 0.749308,0.749308 0.413943,0 0.749309,-0.335759 0.749309,-0.749308 0,-0.413549 -0.335367,-0.748792 -0.749309,-0.748792 z m 3.913456,0 c -0.413941,0 -0.749308,0.335243 -0.749308,0.748792 0,0.413549 0.335367,0.749308 0.749308,0.749308 0.413941,0 0.749309,-0.335759 0.749309,-0.749308 0,-0.413549 -0.335368,-0.748792 -0.749309,-0.748792 z m 4.12533,0 c -0.41394,0 -0.749825,0.335243 -0.749825,0.748792 0,0.413549 0.335885,0.749308 0.749825,0.749308 0.41394,0 0.74931,-0.335759 0.74931,-0.749308 0,-0.413549 -0.33537,-0.748792 -0.74931,-0.748792 z m 1.95699,0 c -0.41394,0 -0.75034,0.335243 -0.75034,0.748792 0,0.413549 0.3364,0.749308 0.75034,0.749308 0.41394,0 0.74931,-0.335759 0.74931,-0.749308 0,-0.413549 -0.33537,-0.748792 -0.74931,-0.748792 z m 1.95647,0 c -0.41395,0 -0.74983,0.335243 -0.74983,0.748792 0,0.413549 0.33588,0.749308 0.74983,0.749308 0.41394,0 0.74931,-0.335759 0.74931,-0.749308 0,-0.413549 -0.33537,-0.748792 -0.74931,-0.748792 z m 1.95698,0 c -0.41394,0 -0.75034,0.335243 -0.75034,0.748792 0,0.413549 0.3364,0.749308 0.75034,0.749308 0.41394,0 0.74931,-0.335759 0.74931,-0.749308 0,-0.413549 -0.33537,-0.748792 -0.74931,-0.748792 z m 9.99474,0 c -0.41394,0 -0.7493,0.335243 -0.7493,0.748792 0,0.413549 0.33536,0.749308 0.7493,0.749308 0.41394,0 0.74931,-0.335759 0.74931,-0.749308 0,-0.413549 -0.33537,-0.748792 -0.74931,-0.748792 z m 1.95647,0 c -0.41395,0 -0.74931,0.335243 -0.74931,0.748792 0,0.413549 0.33536,0.749308 0.74931,0.749308 0.41394,0 0.74931,-0.335759 0.74931,-0.749308 0,-0.413549 -0.33537,-0.748792 -0.74931,-0.748792 z" /></svg>
